<svg xmlns="http://www.w3.org/2000/svg" width="680" height="460" font-family="system-ui, -apple-system, sans-serif">

  <!-- 总背景 -->
  <rect width="680" height="460" fill="#f8f9fa" rx="12"/>

  <!-- 标题 -->
  <text x="340" y="28" text-anchor="middle" font-size="17" font-weight="700" fill="#1a237e">axis 压缩方向示意图</text>
  <text x="340" y="44" text-anchor="middle" font-size="11" fill="#546e7a">axis 参数指定被"压缩消除"的那个维度</text>
  <line x1="20" y1="52" x2="660" y2="52" stroke="#c5cae9" stroke-width="1.5"/>

  <!-- 分隔线 -->
  <line x1="340" y1="58" x2="340" y2="400" stroke="#e0e0e0" stroke-width="1.5" stroke-dasharray="5,4"/>

  <!-- ═══════════════════════════════════════════
       左区：axis=0 往下压缩（消除行）
       数据格：4列，列宽56，列间距2
       标签区宽40，从 x=28 开始
       列中心: 28+40+0=68 → c0=96, c1=154, c2=212, c3=270
       ═══════════════════════════════════════════ -->

  <!-- 左区标题 -->
  <rect x="22" y="58" width="306" height="30" rx="6" fill="#E3F2FD" stroke="#1976d2" stroke-width="1.5"/>
  <text x="175" y="78" text-anchor="middle" font-size="13" font-weight="700" fill="#0d47a1">▼  axis=0：压掉行，结果 shape=(4,)</text>

  <!-- 列标题（样本列） -->
  <rect x="66" y="93"  width="56" height="24" fill="#E3F2FD" stroke="#90caf9" stroke-width="1"/>
  <text x="94"  y="109" text-anchor="middle" font-size="10" font-weight="700" fill="#1565c0">样本1</text>
  <rect x="124" y="93"  width="56" height="24" fill="#E3F2FD" stroke="#90caf9" stroke-width="1"/>
  <text x="152" y="109" text-anchor="middle" font-size="10" font-weight="700" fill="#1565c0">样本2</text>
  <rect x="182" y="93"  width="56" height="24" fill="#E3F2FD" stroke="#90caf9" stroke-width="1"/>
  <text x="210" y="109" text-anchor="middle" font-size="10" font-weight="700" fill="#1565c0">样本3</text>
  <rect x="240" y="93"  width="56" height="24" fill="#E3F2FD" stroke="#90caf9" stroke-width="1"/>
  <text x="268" y="109" text-anchor="middle" font-size="10" font-weight="700" fill="#1565c0">样本4</text>

  <!-- 行0：基因A -->
  <text x="24" y="133" font-size="10" font-weight="600" fill="#2e7d32">基因A</text>
  <rect x="66"  y="119" width="56" height="28" rx="4" fill="#c8e6c9" stroke="#43a047" stroke-width="1.5"/>
  <text x="94"  y="137" text-anchor="middle" font-size="12" font-weight="700" fill="#1b5e20">5.2</text>
  <rect x="124" y="119" width="56" height="28" rx="4" fill="#c8e6c9" stroke="#43a047" stroke-width="1.5"/>
  <text x="152" y="137" text-anchor="middle" font-size="12" font-weight="700" fill="#1b5e20">3.1</text>
  <rect x="182" y="119" width="56" height="28" rx="4" fill="#c8e6c9" stroke="#43a047" stroke-width="1.5"/>
  <text x="210" y="137" text-anchor="middle" font-size="12" font-weight="700" fill="#1b5e20">7.8</text>
  <rect x="240" y="119" width="56" height="28" rx="4" fill="#c8e6c9" stroke="#43a047" stroke-width="1.5"/>
  <text x="268" y="137" text-anchor="middle" font-size="12" font-weight="700" fill="#1b5e20">4.5</text>

  <!-- 行1：基因B -->
  <text x="24" y="173" font-size="10" font-weight="600" fill="#2e7d32">基因B</text>
  <rect x="66"  y="159" width="56" height="28" rx="4" fill="#a5d6a7" stroke="#43a047" stroke-width="1.5"/>
  <text x="94"  y="177" text-anchor="middle" font-size="12" font-weight="700" fill="#1b5e20">1.0</text>
  <rect x="124" y="159" width="56" height="28" rx="4" fill="#a5d6a7" stroke="#43a047" stroke-width="1.5"/>
  <text x="152" y="177" text-anchor="middle" font-size="12" font-weight="700" fill="#1b5e20">0.5</text>
  <rect x="182" y="159" width="56" height="28" rx="4" fill="#a5d6a7" stroke="#43a047" stroke-width="1.5"/>
  <text x="210" y="177" text-anchor="middle" font-size="12" font-weight="700" fill="#1b5e20">2.3</text>
  <rect x="240" y="159" width="56" height="28" rx="4" fill="#a5d6a7" stroke="#43a047" stroke-width="1.5"/>
  <text x="268" y="177" text-anchor="middle" font-size="12" font-weight="700" fill="#1b5e20">1.8</text>

  <!-- 行2：基因C -->
  <text x="24" y="213" font-size="10" font-weight="600" fill="#2e7d32">基因C</text>
  <rect x="66"  y="199" width="56" height="28" rx="4" fill="#c8e6c9" stroke="#43a047" stroke-width="1.5"/>
  <text x="94"  y="217" text-anchor="middle" font-size="12" font-weight="700" fill="#1b5e20">9.1</text>
  <rect x="124" y="199" width="56" height="28" rx="4" fill="#c8e6c9" stroke="#43a047" stroke-width="1.5"/>
  <text x="152" y="217" text-anchor="middle" font-size="12" font-weight="700" fill="#1b5e20">8.7</text>
  <rect x="182" y="199" width="56" height="28" rx="4" fill="#c8e6c9" stroke="#43a047" stroke-width="1.5"/>
  <text x="210" y="217" text-anchor="middle" font-size="12" font-weight="700" fill="#1b5e20">6.5</text>
  <rect x="240" y="199" width="56" height="28" rx="4" fill="#c8e6c9" stroke="#43a047" stroke-width="1.5"/>
  <text x="268" y="217" text-anchor="middle" font-size="12" font-weight="700" fill="#1b5e20">7.2</text>

  <!-- 4条向下箭头 -->
  <line x1="94"  y1="230" x2="94"  y2="252" stroke="#1565c0" stroke-width="2.5"/>
  <polygon points="88,252 100,252 94,263" fill="#1565c0"/>
  <line x1="152" y1="230" x2="152" y2="252" stroke="#1565c0" stroke-width="2.5"/>
  <polygon points="146,252 158,252 152,263" fill="#1565c0"/>
  <line x1="210" y1="230" x2="210" y2="252" stroke="#1565c0" stroke-width="2.5"/>
  <polygon points="204,252 216,252 210,263" fill="#1565c0"/>
  <line x1="268" y1="230" x2="268" y2="252" stroke="#1565c0" stroke-width="2.5"/>
  <polygon points="262,252 274,252 268,263" fill="#1565c0"/>

  <!-- 结果行 -->
  <rect x="66"  y="265" width="56" height="32" rx="5" fill="#1565c0" stroke="#0d47a1" stroke-width="1.5"/>
  <text x="94"  y="286" text-anchor="middle" font-size="12" font-weight="700" fill="white">5.10</text>
  <rect x="124" y="265" width="56" height="32" rx="5" fill="#1565c0" stroke="#0d47a1" stroke-width="1.5"/>
  <text x="152" y="286" text-anchor="middle" font-size="12" font-weight="700" fill="white">4.10</text>
  <rect x="182" y="265" width="56" height="32" rx="5" fill="#1565c0" stroke="#0d47a1" stroke-width="1.5"/>
  <text x="210" y="286" text-anchor="middle" font-size="12" font-weight="700" fill="white">5.53</text>
  <rect x="240" y="265" width="56" height="32" rx="5" fill="#1565c0" stroke="#0d47a1" stroke-width="1.5"/>
  <text x="268" y="286" text-anchor="middle" font-size="12" font-weight="700" fill="white">4.50</text>

  <!-- 结果标注 -->
  <text x="175" y="318" text-anchor="middle" font-size="11" font-weight="600" fill="#0d47a1">[5.1,  4.1,  5.53,  4.5]</text>
  <text x="175" y="333" text-anchor="middle" font-size="10" fill="#546e7a">每个样本的均值（4个值）</text>

  <!-- 说明框 -->
  <rect x="24" y="346" width="302" height="44" rx="6" fill="#E3F2FD" stroke="#90caf9" stroke-width="1.5"/>
  <text x="175" y="365" text-anchor="middle" font-size="11" font-weight="600" fill="#0d47a1">沿行方向往下压缩（消除行）</text>
  <text x="175" y="381" text-anchor="middle" font-size="10" fill="#546e7a">(3,4) → 压掉第0维(行) → (4,)</text>

  <!-- ═══════════════════════════════════════════
       右区：axis=1 往右压缩（消除列）
       列宽50，从 x=358 开始，行标签宽40
       列: 398,450,502,554，结果: 612
       ═══════════════════════════════════════════ -->

  <!-- 右区标题 -->
  <rect x="352" y="58" width="306" height="30" rx="6" fill="#E8F5E9" stroke="#43a047" stroke-width="1.5"/>
  <text x="505" y="78" text-anchor="middle" font-size="13" font-weight="700" fill="#1b5e20">▶  axis=1：压掉列，结果 shape=(3,)</text>

  <!-- 列标题 -->
  <rect x="396" y="93"  width="50" height="24" fill="#E3F2FD" stroke="#90caf9" stroke-width="1"/>
  <text x="421" y="109" text-anchor="middle" font-size="10" font-weight="700" fill="#1565c0">样本1</text>
  <rect x="448" y="93"  width="50" height="24" fill="#E3F2FD" stroke="#90caf9" stroke-width="1"/>
  <text x="473" y="109" text-anchor="middle" font-size="10" font-weight="700" fill="#1565c0">样本2</text>
  <rect x="500" y="93"  width="50" height="24" fill="#E3F2FD" stroke="#90caf9" stroke-width="1"/>
  <text x="525" y="109" text-anchor="middle" font-size="10" font-weight="700" fill="#1565c0">样本3</text>
  <rect x="552" y="93"  width="50" height="24" fill="#E3F2FD" stroke="#90caf9" stroke-width="1"/>
  <text x="577" y="109" text-anchor="middle" font-size="10" font-weight="700" fill="#1565c0">样本4</text>

  <!-- 行0：基因A -->
  <text x="356" y="133" font-size="10" font-weight="600" fill="#2e7d32">基因A</text>
  <rect x="396" y="119" width="50" height="28" rx="4" fill="#c8e6c9" stroke="#43a047" stroke-width="1.5"/>
  <text x="421" y="137" text-anchor="middle" font-size="12" font-weight="700" fill="#1b5e20">5.2</text>
  <rect x="448" y="119" width="50" height="28" rx="4" fill="#c8e6c9" stroke="#43a047" stroke-width="1.5"/>
  <text x="473" y="137" text-anchor="middle" font-size="12" font-weight="700" fill="#1b5e20">3.1</text>
  <rect x="500" y="119" width="50" height="28" rx="4" fill="#c8e6c9" stroke="#43a047" stroke-width="1.5"/>
  <text x="525" y="137" text-anchor="middle" font-size="12" font-weight="700" fill="#1b5e20">7.8</text>
  <rect x="552" y="119" width="50" height="28" rx="4" fill="#c8e6c9" stroke="#43a047" stroke-width="1.5"/>
  <text x="577" y="137" text-anchor="middle" font-size="12" font-weight="700" fill="#1b5e20">4.5</text>
  <!-- 向右箭头 -->
  <line x1="604" y1="133" x2="620" y2="133" stroke="#2e7d32" stroke-width="2.5"/>
  <polygon points="620,127 620,139 632,133" fill="#2e7d32"/>
  <!-- 结果格 -->
  <rect x="634" y="119" width="38" height="28" rx="5" fill="#2e7d32" stroke="#1b5e20" stroke-width="1.5"/>
  <text x="653" y="137" text-anchor="middle" font-size="11" font-weight="700" fill="white">5.15</text>

  <!-- 行1：基因B -->
  <text x="356" y="173" font-size="10" font-weight="600" fill="#2e7d32">基因B</text>
  <rect x="396" y="159" width="50" height="28" rx="4" fill="#a5d6a7" stroke="#43a047" stroke-width="1.5"/>
  <text x="421" y="177" text-anchor="middle" font-size="12" font-weight="700" fill="#1b5e20">1.0</text>
  <rect x="448" y="159" width="50" height="28" rx="4" fill="#a5d6a7" stroke="#43a047" stroke-width="1.5"/>
  <text x="473" y="177" text-anchor="middle" font-size="12" font-weight="700" fill="#1b5e20">0.5</text>
  <rect x="500" y="159" width="50" height="28" rx="4" fill="#a5d6a7" stroke="#43a047" stroke-width="1.5"/>
  <text x="525" y="177" text-anchor="middle" font-size="12" font-weight="700" fill="#1b5e20">2.3</text>
  <rect x="552" y="159" width="50" height="28" rx="4" fill="#a5d6a7" stroke="#43a047" stroke-width="1.5"/>
  <text x="577" y="177" text-anchor="middle" font-size="12" font-weight="700" fill="#1b5e20">1.8</text>
  <line x1="604" y1="173" x2="620" y2="173" stroke="#2e7d32" stroke-width="2.5"/>
  <polygon points="620,167 620,179 632,173" fill="#2e7d32"/>
  <rect x="634" y="159" width="38" height="28" rx="5" fill="#2e7d32" stroke="#1b5e20" stroke-width="1.5"/>
  <text x="653" y="177" text-anchor="middle" font-size="11" font-weight="700" fill="white">1.40</text>

  <!-- 行2：基因C -->
  <text x="356" y="213" font-size="10" font-weight="600" fill="#2e7d32">基因C</text>
  <rect x="396" y="199" width="50" height="28" rx="4" fill="#c8e6c9" stroke="#43a047" stroke-width="1.5"/>
  <text x="421" y="217" text-anchor="middle" font-size="12" font-weight="700" fill="#1b5e20">9.1</text>
  <rect x="448" y="199" width="50" height="28" rx="4" fill="#c8e6c9" stroke="#43a047" stroke-width="1.5"/>
  <text x="473" y="217" text-anchor="middle" font-size="12" font-weight="700" fill="#1b5e20">8.7</text>
  <rect x="500" y="199" width="50" height="28" rx="4" fill="#c8e6c9" stroke="#43a047" stroke-width="1.5"/>
  <text x="525" y="217" text-anchor="middle" font-size="12" font-weight="700" fill="#1b5e20">6.5</text>
  <rect x="552" y="199" width="50" height="28" rx="4" fill="#c8e6c9" stroke="#43a047" stroke-width="1.5"/>
  <text x="577" y="217" text-anchor="middle" font-size="12" font-weight="700" fill="#1b5e20">7.2</text>
  <line x1="604" y1="213" x2="620" y2="213" stroke="#2e7d32" stroke-width="2.5"/>
  <polygon points="620,207 620,219 632,213" fill="#2e7d32"/>
  <rect x="634" y="199" width="38" height="28" rx="5" fill="#2e7d32" stroke="#1b5e20" stroke-width="1.5"/>
  <text x="653" y="217" text-anchor="middle" font-size="11" font-weight="700" fill="white">7.88</text>

  <!-- 结果标注 -->
  <text x="505" y="255" text-anchor="middle" font-size="11" font-weight="600" fill="#1b5e20">[5.15,  1.40,  7.875]</text>
  <text x="505" y="270" text-anchor="middle" font-size="10" fill="#546e7a">每个基因的均值（3个值）</text>
  <text x="653" y="255" text-anchor="middle" font-size="9" fill="#1b5e20">基因A</text>
  <text x="653" y="267" text-anchor="middle" font-size="9" fill="#1b5e20">基因B</text>
  <text x="653" y="279" text-anchor="middle" font-size="9" fill="#1b5e20">基因C</text>

  <!-- 说明框 -->
  <rect x="354" y="289" width="302" height="44" rx="6" fill="#E8F5E9" stroke="#a5d6a7" stroke-width="1.5"/>
  <text x="505" y="308" text-anchor="middle" font-size="11" font-weight="600" fill="#1b5e20">沿列方向往右压缩（消除列）</text>
  <text x="505" y="324" text-anchor="middle" font-size="10" fill="#546e7a">(3,4) → 压掉第1维(列) → (3,)</text>

  <!-- ── 底部总结 ── -->
  <rect x="20" y="402" width="640" height="48" rx="8" fill="white" stroke="#e0e0e0" stroke-width="1.5"/>
  <text x="340" y="420" text-anchor="middle" font-size="12" font-weight="700" fill="#37474f">记忆口诀：axis 指定的那个维度消失，剩下的留下来</text>
  <text x="175" y="440" text-anchor="middle" font-size="11" fill="#1565c0">axis=0 消掉行(3) → 剩下列(4) → shape(4,)</text>
  <text x="340" y="440" font-size="11" fill="#9e9e9e">  |  </text>
  <text x="505" y="440" text-anchor="middle" font-size="11" fill="#2e7d32">axis=1 消掉列(4) → 剩下行(3) → shape(3,)</text>

</svg>
